<?xml version="1.0" encoding="UTF-8" standalone="no"?>
<svg width="213px" height="213px" viewBox="0 0 213 213" version="1.1" xmlns="http://www.w3.org/2000/svg" xmlns:xlink="http://www.w3.org/1999/xlink">
    <!-- Generator: Sketch 3.8.1 (29687) - http://www.bohemiancoding.com/sketch -->
    <title>Group 18</title>
    <desc>Created with Sketch.</desc>
    <defs></defs>
    <g id="Servicios" stroke="none" stroke-width="1" fill="none" fill-rule="evenodd">
        <g id="NO" transform="translate(-1045.000000, -1472.000000)" fill="#FFFFFF">
            <g id="design" transform="translate(1045.000000, 1472.000000)">
                <g id="Group">
                    <g id="Group-18">
                        <g id="Shape">
                            <path d="M195.08966,51.8758065 C196.95801,51.8758065 198.472717,50.3615498 198.472717,48.4927488 L198.472717,33.8305768 L208.62189,33.8305768 C210.49024,33.8305768 212.004948,32.3163202 212.004948,30.4475191 L212.004948,3.38305768 C212.004948,1.51425662 210.49024,0 208.62189,0 L181.557429,0 C179.689079,0 178.174371,1.51425662 178.174371,3.38305768 L178.174371,13.5322307 L33.8305768,13.5322307 L33.8305768,3.38305768 C33.8305768,1.51425662 32.3158691,0 30.4475191,0 L3.38305768,0 C1.51470769,0 0,1.51425662 0,3.38305768 L0,30.4475191 C0,32.3163202 1.51470769,33.8305768 3.38305768,33.8305768 L13.5322307,33.8305768 L13.5322307,178.174371 L3.38305768,178.174371 C1.51470769,178.174371 0,179.688628 0,181.557429 L0,208.62189 C0,210.490691 1.51470769,212.004948 3.38305768,212.004948 L30.4475191,212.004948 C32.3158691,212.004948 33.8305768,210.490691 33.8305768,208.62189 L33.8305768,198.472717 L178.174371,198.472717 L178.174371,208.62189 C178.174371,210.490691 179.689079,212.004948 181.557429,212.004948 L208.62189,212.004948 C210.49024,212.004948 212.004948,210.490691 212.004948,208.62189 L212.004948,181.557429 C212.004948,179.688628 210.49024,178.174371 208.62189,178.174371 L198.472717,178.174371 L198.472717,62.0249795 C198.472717,60.1561784 196.95801,58.6419218 195.08966,58.6419218 C193.22131,58.6419218 191.706602,60.1561784 191.706602,62.0249795 L191.706602,178.174371 L181.557429,178.174371 C179.689079,178.174371 178.174371,179.688628 178.174371,181.557429 L178.174371,191.706602 L33.8305768,191.706602 L33.8305768,181.557429 C33.8305768,179.688628 32.3158691,178.174371 30.4475191,178.174371 L20.2983461,178.174371 L20.2983461,33.8305768 L30.4475191,33.8305768 C32.3158691,33.8305768 33.8305768,32.3163202 33.8305768,30.4475191 L33.8305768,20.2983461 L178.174371,20.2983461 L178.174371,30.4475191 C178.174371,32.3163202 179.689079,33.8305768 181.557429,33.8305768 L191.706602,33.8305768 L191.706602,48.4927488 C191.706602,50.3610988 193.22131,51.8758065 195.08966,51.8758065 L195.08966,51.8758065 Z M184.940486,184.940486 L205.238833,184.940486 L205.238833,205.238833 L184.940486,205.238833 L184.940486,184.940486 L184.940486,184.940486 Z M27.0644614,205.238833 L6.76611536,205.238833 L6.76611536,184.940486 L27.0644614,184.940486 L27.0644614,205.238833 L27.0644614,205.238833 Z M27.0644614,27.0644614 L6.76611536,27.0644614 L6.76611536,6.76611536 L27.0644614,6.76611536 L27.0644614,27.0644614 L27.0644614,27.0644614 Z M184.940486,6.76611536 L205.238833,6.76611536 L205.238833,27.0644614 L184.940486,27.0644614 L184.940486,6.76611536 L184.940486,6.76611536 Z"></path>
                            <path d="M166.568486,48.1614668 C166.568486,46.2926657 165.053778,44.7784091 163.185428,44.7784091 L48.1614668,44.7784091 C46.2931168,44.7784091 44.7784091,46.2926657 44.7784091,48.1614668 L44.7784091,105.670741 C44.7784091,107.539542 46.2931168,109.053799 48.1614668,109.053799 L163.185428,109.053799 C165.053778,109.053799 166.568486,107.539542 166.568486,105.670741 L166.568486,48.1614668 L166.568486,48.1614668 Z M51.5445245,53.6352541 L98.1084793,76.9161038 L51.5445245,100.196954 L51.5445245,53.6352541 L51.5445245,53.6352541 Z M62.4925502,51.5445245 L148.853893,51.5445245 L105.673447,73.1338453 L62.4925502,51.5445245 L62.4925502,51.5445245 Z M105.673447,80.6983623 L148.854344,102.287683 L62.4925502,102.287683 L105.673447,80.6983623 L105.673447,80.6983623 Z M113.238415,76.9161038 L159.80237,53.6352541 L159.80237,100.197405 L113.238415,76.9161038 L113.238415,76.9161038 Z"></path>
                            <path d="M98.907332,159.75 L48.1614668,159.75 C46.2931168,159.75 44.7784091,161.264257 44.7784091,163.133058 C44.7784091,165.001859 46.2931168,166.516115 48.1614668,166.516115 L98.907332,166.516115 C100.775682,166.516115 102.29039,165.001859 102.29039,163.133058 C102.29039,161.264257 100.775682,159.75 98.907332,159.75 L98.907332,159.75 Z"></path>
                            <path d="M163.049377,159.75 L112.303512,159.75 C110.435162,159.75 108.920455,161.264257 108.920455,163.133058 C108.920455,165.001859 110.435162,166.516115 112.303512,166.516115 L163.049377,166.516115 C164.917727,166.516115 166.432435,165.001859 166.432435,163.133058 C166.432435,161.264257 164.917727,159.75 163.049377,159.75 L163.049377,159.75 Z"></path>
                            <path d="M98.907332,145.227273 L48.1614668,145.227273 C46.2931168,145.227273 44.7784091,146.741529 44.7784091,148.61033 C44.7784091,150.479131 46.2931168,151.993388 48.1614668,151.993388 L98.907332,151.993388 C100.775682,151.993388 102.29039,150.479131 102.29039,148.61033 C102.29039,146.741529 100.775682,145.227273 98.907332,145.227273 L98.907332,145.227273 Z"></path>
                            <path d="M163.049377,145.227273 L112.303512,145.227273 C110.435162,145.227273 108.920455,146.741529 108.920455,148.61033 C108.920455,150.479131 110.435162,151.993388 112.303512,151.993388 L163.049377,151.993388 C164.917727,151.993388 166.432435,150.479131 166.432435,148.61033 C166.432435,146.741529 164.917727,145.227273 163.049377,145.227273 L163.049377,145.227273 Z"></path>
                            <path d="M98.907332,130.704545 L48.1614668,130.704545 C46.2931168,130.704545 44.7784091,132.218802 44.7784091,134.087603 C44.7784091,135.956404 46.2931168,137.470661 48.1614668,137.470661 L98.907332,137.470661 C100.775682,137.470661 102.29039,135.956404 102.29039,134.087603 C102.29039,132.218802 100.775682,130.704545 98.907332,130.704545 L98.907332,130.704545 Z"></path>
                            <path d="M163.049377,130.704545 L112.303512,130.704545 C110.435162,130.704545 108.920455,132.218802 108.920455,134.087603 C108.920455,135.956404 110.435162,137.470661 112.303512,137.470661 L163.049377,137.470661 C164.917727,137.470661 166.432435,135.956404 166.432435,134.087603 C166.432435,132.218802 164.917727,130.704545 163.049377,130.704545 L163.049377,130.704545 Z"></path>
                            <path d="M163.185428,117.392045 L48.1614668,117.392045 C46.2931168,117.392045 44.7784091,118.906302 44.7784091,120.775103 C44.7784091,122.643904 46.2931168,124.158161 48.1614668,124.158161 L163.185428,124.158161 C165.053778,124.158161 166.568486,122.643904 166.568486,120.775103 C166.568486,118.906302 165.053778,117.392045 163.185428,117.392045 L163.185428,117.392045 Z"></path>
                        </g>
                    </g>
                </g>
            </g>
        </g>
    </g>
</svg>