<?xml version="1.0" encoding="UTF-8" standalone="no"?>
<svg width="225px" height="225px" viewBox="0 0 225 225" version="1.1" xmlns="http://www.w3.org/2000/svg" xmlns:xlink="http://www.w3.org/1999/xlink">
    <!-- Generator: Sketch 3.8.1 (29687) - http://www.bohemiancoding.com/sketch -->
    <title>Group</title>
    <desc>Created with Sketch.</desc>
    <defs></defs>
    <g id="Servicios" stroke="none" stroke-width="1" fill="none" fill-rule="evenodd">
        <g id="NO" transform="translate(-220.000000, -738.000000)" fill="#FFFFFF">
            <g id="target" transform="translate(220.000000, 738.000000)">
                <g id="Capa_1">
                    <g id="Group">
                        <path d="M84.0358239,149.397528 C78.888729,149.397528 74.6985564,145.212344 74.6985564,140.060261 C74.6985564,134.908593 78.8883133,130.722993 84.0358239,130.722993 C89.1829189,130.722993 93.3730915,134.908178 93.3730915,140.060261 C93.3730915,145.212344 89.1833346,149.397528 84.0358239,149.397528 L84.0358239,149.397528 Z" id="Shape"></path>
                        <path d="M84.0358239,168.071648 C68.5895507,168.071648 56.0244369,155.506534 56.0244369,140.060261 C56.0244369,124.613988 68.5895507,112.048874 84.0358239,112.048874 C99.4820971,112.048874 112.047211,124.613988 112.047211,140.060261 C112.047211,155.506534 99.4820971,168.071648 84.0358239,168.071648 L84.0358239,168.071648 Z M84.0358239,121.386557 C73.7366457,121.386557 65.3617045,129.766071 65.3617045,140.060677 C65.3617045,150.355282 73.7366457,158.734796 84.0358239,158.734796 C94.3350022,158.734796 102.709943,150.355282 102.709943,140.060677 C102.709943,129.766071 94.3350022,121.386557 84.0358239,121.386557 L84.0358239,121.386557 Z" id="Shape"></path>
                        <path d="M84.0358239,196.083035 C53.1432775,196.083035 28.0134655,170.953223 28.0134655,140.060677 C28.0134655,109.16813 53.1432775,84.0383181 84.0358239,84.0383181 C114.92837,84.0383181 140.058182,109.16813 140.058182,140.060677 C140.058182,170.953223 114.92837,196.083035 84.0358239,196.083035 L84.0358239,196.083035 Z M84.0358239,93.37517 C58.2949451,93.37517 37.3503174,114.319798 37.3503174,140.060677 C37.3503174,165.801555 58.2949451,186.746183 84.0358239,186.746183 C109.776703,186.746183 130.72133,165.801555 130.72133,140.060677 C130.72133,114.319798 109.776703,93.37517 84.0358239,93.37517 L84.0358239,93.37517 Z" id="Shape"></path>
                        <path d="M84.0358239,224.094422 C37.7015769,224.094422 0.00207845864,186.399496 0.00207845864,140.060677 C0.00207845864,93.7264295 37.7015769,56.026931 84.0358239,56.026931 C130.374644,56.026931 168.069569,93.7264295 168.069569,140.060677 C168.069569,186.399496 130.374644,224.094422 84.0358239,224.094422 L84.0358239,224.094422 Z M84.0358239,65.3637829 C42.8486719,65.3637829 9.33934604,98.8731088 9.33934604,140.060261 C9.33934604,181.247413 42.8486719,214.756739 84.0358239,214.756739 C125.222976,214.756739 158.732302,181.247413 158.732302,140.060261 C158.732302,98.8731088 125.222976,65.3637829 84.0358239,65.3637829 L84.0358239,65.3637829 Z" id="Shape"></path>
                        <path d="M84.0358239,144.72931 C82.8415416,144.72931 81.6468436,144.273296 80.7348159,143.361685 C78.9111763,141.538045 78.9111763,138.583724 80.7348159,136.760084 L192.779948,24.7149517 C194.603588,22.891312 197.557909,22.891312 199.381549,24.7149517 C201.205188,26.5385913 201.205188,29.4929124 199.381549,31.316552 L87.3368319,143.361269 C86.4248043,144.273296 85.230522,144.72931 84.0358239,144.72931 L84.0358239,144.72931 Z" id="Shape"></path>
                        <path d="M179.330658,80.5003658 C171.315706,80.5003658 163.300754,76.5384079 155.43171,68.6647909 C145.602263,58.8399169 141.873092,48.7914008 144.325674,38.8027443 C150.352788,14.3338821 192.880546,0.783994598 194.685895,0.218653849 C196.108392,-0.237359976 197.649361,0.0315925713 198.843644,0.911611958 C200.047071,1.79163135 200.749175,3.18669278 200.749175,4.67279071 L200.749175,23.3469102 L219.423294,23.3469102 C220.909392,23.3469102 222.304869,24.0535861 223.189045,25.2478685 C224.064492,26.4467234 224.319727,27.9922652 223.882004,29.4056171 C223.316663,31.2155389 209.766775,73.7474537 185.293756,79.7658385 C183.306334,80.2584332 181.318496,80.5003658 179.330658,80.5003658 L179.330658,80.5003658 Z M191.412323,11.2789636 C178.291013,16.3898934 156.74488,27.3907593 153.389416,41.0408286 C151.748265,47.7288928 154.574969,54.6040182 162.03331,62.0627749 C169.492067,69.516959 176.394628,72.3436627 183.059829,70.7025118 C196.737334,67.3379029 207.724482,45.7959262 212.821694,32.6841778 L196.080541,32.6841778 C193.499927,32.6841778 191.411907,30.5961582 191.411907,28.015544 L191.411907,11.2789636 L191.412323,11.2789636 Z" id="Shape"></path>
                        <rect id="Rectangle-path" x="168.069569" y="14.8992229" width="9.33726758" height="36.4590743"></rect>
                        <path d="M4.67071225,224.094422 C3.47642992,224.094422 2.28173189,223.638408 1.36970424,222.726796 C-0.453935366,220.903157 -0.453935366,217.948835 1.36970424,216.125196 L24.7124575,192.782443 C26.5360971,190.958803 29.4904182,190.958803 31.3140578,192.782443 C33.1376974,194.606082 33.1376974,197.560403 31.3140578,199.384043 L7.97130457,222.726796 C7.05969261,223.638408 5.86541027,224.094422 4.67071225,224.094422 L4.67071225,224.094422 Z" id="Shape"></path>
                        <path d="M163.400936,224.094422 C162.206238,224.094422 161.011955,223.638408 160.100343,222.726796 L136.75759,199.384043 C134.93395,197.560403 134.93395,194.606082 136.75759,192.782443 C138.58123,190.958803 141.535551,190.958803 143.35919,192.782443 L166.701944,216.125196 C168.525583,217.948835 168.525583,220.903157 166.701944,222.726796 C165.789916,223.638408 164.595634,224.094422 163.400936,224.094422 L163.400936,224.094422 Z" id="Shape"></path>
                    </g>
                </g>
            </g>
        </g>
    </g>
</svg>