<?xml version="1.0" encoding="UTF-8" standalone="no"?>
<svg width="216px" height="199px" viewBox="0 0 216 199" version="1.1" xmlns="http://www.w3.org/2000/svg" xmlns:xlink="http://www.w3.org/1999/xlink">
    <!-- Generator: Sketch 3.8.1 (29687) - http://www.bohemiancoding.com/sketch -->
    <title>Group</title>
    <desc>Created with Sketch.</desc>
    <defs></defs>
    <g id="Servicios" stroke="none" stroke-width="1" fill="none" fill-rule="evenodd">
        <g id="NO" transform="translate(-197.000000, -2103.000000)" fill="#FFFFFF">
            <g id="devices-(1)" transform="translate(197.000000, 2103.000000)">
                <g id="Group">
                    <path d="M189.143925,113.878023 L164.961284,137.96017 L159.028635,132.050462 C157.602416,130.629759 155.293134,130.629759 153.866915,132.050462 C152.440696,133.471166 152.440696,135.771519 153.866915,137.192222 L162.378672,145.671065 C163.090029,146.379672 164.025657,146.73572 164.95778,146.73572 C165.889903,146.73572 166.825531,146.379672 167.536888,145.671065 L194.298637,119.019783 C195.724855,117.599079 195.724855,115.298726 194.298637,113.878023 C192.879426,112.457319 190.570144,112.457319 189.143925,113.878023 L189.143925,113.878023 Z" id="Shape"></path>
                    <path d="M97.1861126,66.8447052 C97.869436,67.5253863 98.7980551,67.9093602 99.7652205,67.9093602 C100.73589,67.9093602 101.661005,67.5253863 102.344328,66.8447052 L131.709715,37.5858907 C133.135933,36.1651871 133.135933,33.8648341 131.709715,32.4441305 C130.283496,31.0234269 127.974213,31.0234269 126.547995,32.4441305 L99.7652205,59.1303196 L92.991558,52.3828502 C91.5653394,50.9621466 89.2560566,50.9621466 87.829838,52.3828502 C86.4036193,53.8035538 86.4036193,56.1039068 87.829838,57.5246104 L97.1861126,66.8447052 L97.1861126,66.8447052 Z" id="Shape"></path>
                    <path d="M58.8849584,146.676379 C57.4587398,145.255675 55.149457,145.255675 53.7232384,146.676379 L38.2380782,162.101659 L35.0737651,158.942601 C33.6475465,157.521897 31.3382637,157.521897 29.912045,158.942601 C28.4858264,160.363305 28.4858264,162.663658 29.912045,164.084361 L35.6589703,169.816045 C36.3422937,170.496726 37.2709127,170.8807 38.2380782,170.8807 C39.2052437,170.8807 40.1338627,170.496726 40.8171861,169.816045 L58.8814542,151.82163 C60.3111771,150.397435 60.3111771,148.097082 58.8849584,146.676379 L58.8849584,146.676379 Z" id="Shape"></path>
                    <path d="M204.49242,81.2821255 L203.385086,81.2821255 L203.385086,15.325874 C203.385086,6.91684459 196.513305,0.0716363703 187.952489,0.0716363703 L17.6647867,0.0716363703 C9.22311417,0.0716363703 2.35133344,6.91684459 2.35133344,15.325874 L2.35133344,106.121749 C2.35133344,114.53776 9.22311417,121.382968 17.7839302,121.382968 L91.228934,121.382968 L87.8508633,132.689255 C86.1057604,131.51988 84.006731,130.832218 81.7500116,130.832218 L10.950696,130.832218 C4.91292024,130.835708 0,135.72614 0,141.740568 L0,174.82516 C0,180.839588 4.91292024,185.73351 10.950696,185.73351 L81.7535158,185.73351 C87.7912915,185.73351 92.7042118,180.839588 92.7042118,174.82516 L92.7042118,172.695849 L129.754358,172.695849 L129.754358,187.663852 C129.754358,193.67828 134.667279,198.572203 140.705054,198.572203 L204.49242,198.572203 C210.530196,198.572203 215.443116,193.67828 215.443116,187.663852 L215.443116,92.1904762 C215.439612,86.1760479 210.530196,81.2821255 204.49242,81.2821255 L204.49242,81.2821255 Z M208.140316,92.1904762 L208.140316,173.819846 L137.053654,173.819846 L137.053654,139.974288 L137.053654,129.778035 L137.053654,95.9254954 L137.053654,92.1904762 C137.053654,90.1868303 138.693631,88.5531957 140.705054,88.5531957 L204.49242,88.5531957 C206.50034,88.5531957 208.140316,90.1868303 208.140316,92.1904762 L208.140316,92.1904762 Z M129.750854,129.778035 L129.750854,139.974288 L129.750854,147.489705 L126.926451,146.927707 C123.881281,146.323821 121.445846,143.995543 120.70996,140.983092 L115.923191,121.382968 L129.74735,121.382968 L129.74735,129.778035 L129.750854,129.778035 Z M17.6682909,7.3427066 L188.075137,7.3427066 C192.493962,7.3427066 196.089294,10.9206456 196.089294,15.325874 L196.089294,81.2821255 L140.705054,81.2821255 C135.115819,81.2821255 130.546313,85.4883855 129.887519,90.8814741 L9.65763779,90.8814741 L9.65763779,15.325874 C9.65763779,10.9206456 13.2494661,7.3427066 17.6682909,7.3427066 L17.6682909,7.3427066 Z M17.6682909,114.111898 C13.2494661,114.111898 9.65413356,110.526977 9.65413356,106.121749 L9.65413356,98.1525443 L129.754358,98.1525443 L129.754358,114.108407 L17.6682909,114.108407 L17.6682909,114.111898 Z M7.30280013,174.832141 L7.30280013,141.74755 C7.30280013,139.743904 8.94277635,138.110269 10.9542002,138.110269 L71.2723857,138.110269 L71.2723857,178.465931 L10.9542002,178.465931 C8.94277635,178.465931 7.30280013,176.832296 7.30280013,174.832141 L7.30280013,174.832141 Z M85.4084201,174.832141 C85.4084201,176.835787 83.7684439,178.469421 81.75702,178.469421 L78.5716816,178.469421 L78.5716816,138.110269 L81.75702,138.110269 C83.7684439,138.110269 85.4084201,139.743904 85.4084201,141.74755 L85.4084201,174.832141 L85.4084201,174.832141 Z M92.707716,165.42827 L92.707716,141.744059 C92.707716,141.241402 92.6236147,140.759689 92.5570344,140.274486 C93.0441214,139.841643 93.4891577,139.338986 93.6888984,138.672267 L98.8541226,121.386459 L108.420651,121.386459 L113.620917,142.703994 C115.02611,148.44964 119.686727,152.907229 125.496728,154.059151 L129.754358,154.907384 L129.754358,165.42827 L92.707716,165.42827 L92.707716,165.42827 Z M204.495925,191.304623 L140.705054,191.304623 C138.693631,191.304623 137.053654,189.670988 137.053654,187.667343 L137.053654,181.090916 L208.14382,181.090916 L208.14382,187.667343 C208.14382,189.670988 206.503844,191.304623 204.495925,191.304623 L204.495925,191.304623 Z" id="Shape"></path>
                </g>
            </g>
        </g>
    </g>
</svg>